<svg xmlns="http://www.w3.org/2000/svg" width="1100" height="1100" viewBox="0 0 1100 1100" version="1.1"><path d="M 474.685 347.017 C 470.737 348.202, 465.270 352.578, 463.528 355.947 C 454.203 373.978, 473.622 391.869, 492.063 382.236 C 503.854 376.076, 505.719 360.106, 495.676 351.289 C 490.229 346.506, 481.979 344.827, 474.685 347.017 M 182.244 437.750 L 182.500 524.500 197 524.500 L 211.500 524.500 211.767 499.828 L 212.035 475.155 218.767 474.480 C 222.470 474.108, 227.206 473.442, 229.290 472.999 C 233.712 472.061, 231.279 469.207, 255.510 503.750 L 270.416 525 287.708 525 C 298.762 525, 305 524.633, 305 523.983 C 305 523.424, 294.803 509.385, 282.340 492.786 C 269.876 476.188, 260.169 462.444, 260.767 462.244 C 261.365 462.045, 264.956 459.704, 268.746 457.042 C 276.579 451.541, 285.516 442.910, 291.755 434.819 C 296.114 429.168, 306 413.280, 306 411.928 C 306 411.514, 302.288 409.055, 297.750 406.465 C 293.212 403.874, 288.107 400.916, 286.405 399.891 L 283.310 398.029 278.086 406.855 C 268.813 422.521, 256.493 434.131, 241.893 440.963 C 234.411 444.464, 221.319 448, 215.840 448 L 212 448 212 399.500 L 212 351 196.994 351 L 181.989 351 182.244 437.750 M 373.061 399.046 C 354.061 401.625, 337.916 411.026, 326.573 426.115 C 322.814 431.115, 322.155 432.560, 323.201 433.506 C 324.841 434.991, 344.187 446.183, 344.436 445.791 C 344.538 445.631, 346.075 443.182, 347.851 440.348 C 352.100 433.573, 359.820 426.449, 365.741 423.838 C 371.687 421.216, 383.935 420.305, 390.871 421.969 C 402.249 424.699, 410 433.697, 410 444.177 C 410 448.327, 409.702 449.027, 407.750 449.452 C 406.512 449.721, 394.025 451.102, 380 452.520 C 365.975 453.939, 351.832 455.785, 348.571 456.623 C 336.274 459.785, 326.910 466.458, 322.173 475.437 C 319.794 479.946, 319.501 481.593, 319.501 490.500 C 319.500 499.404, 319.804 501.118, 322.270 506.142 C 325.351 512.415, 331.633 518.752, 337.982 521.991 C 344.698 525.417, 356.522 528.001, 365.410 527.985 C 383.192 527.953, 396.654 522.044, 404.161 510.975 C 405.997 508.267, 408.288 506.040, 409.250 506.026 C 410.796 506.003, 411 507.109, 411 515.500 L 411 525 424.500 525 L 438 525 437.988 482.250 C 437.976 436.795, 437.761 434.335, 432.940 424.376 C 427.865 413.893, 414.734 404.137, 401 400.645 C 393.437 398.722, 380.786 397.998, 373.061 399.046 M 572.624 399.095 C 563.969 400.257, 553.461 403.882, 546.287 408.179 C 539.661 412.149, 529.589 421.695, 525.175 428.188 L 521.989 432.877 531.244 438.296 C 546.071 446.977, 544.640 446.625, 546.923 442.151 C 550.436 435.264, 558.374 427.561, 565.209 424.405 C 570.889 421.782, 572.520 421.500, 582 421.500 C 591.897 421.500, 592.816 421.678, 598 424.604 C 605.092 428.606, 608.708 433.735, 610.125 441.801 C 610.734 445.266, 610.950 448.383, 610.606 448.728 C 610.262 449.072, 597.722 450.618, 582.740 452.164 C 567.758 453.710, 552.638 455.673, 549.140 456.526 C 536.365 459.642, 526.898 466.434, 522.311 475.776 C 519.860 480.766, 519.500 482.657, 519.500 490.521 C 519.500 498.701, 519.807 500.165, 522.792 506.229 C 530.163 521.203, 546.852 528.864, 569.500 527.671 C 586.104 526.797, 597.860 521.124, 604.500 510.782 C 606.150 508.211, 608.271 506.084, 609.212 506.054 C 610.690 506.007, 610.964 507.271, 611.212 515.250 L 611.500 524.500 624.750 524.779 L 638 525.058 638 481.634 C 638 441.211, 637.863 437.769, 636.024 431.813 C 629.982 412.250, 612.604 400.395, 587.500 398.709 C 583.100 398.414, 576.406 398.587, 572.624 399.095 M 468 463.528 L 468 525.056 481.750 524.778 L 495.500 524.500 495.758 463.250 L 496.015 402 482.008 402 L 468 402 468 463.528 M 387.596 471.530 C 362.587 474.288, 360.656 474.625, 355.891 477.056 C 350.374 479.870, 347.999 483.432, 348.004 488.885 C 348.009 495.081, 350.687 499.177, 356.652 502.113 C 360.886 504.198, 362.893 504.496, 372.500 504.472 C 381.624 504.448, 384.523 504.043, 389.500 502.097 C 397.770 498.864, 406.245 490.281, 408.429 482.929 C 410.057 477.446, 410.564 468.916, 409.250 469.112 C 408.837 469.174, 399.093 470.261, 387.596 471.530 M 587.596 471.530 C 562.489 474.299, 560.667 474.619, 555.757 477.124 C 550.871 479.617, 548.009 484.277, 548.004 489.747 C 548.001 493.227, 548.655 494.719, 551.624 498.005 C 556.623 503.539, 563.268 505.415, 575.582 504.771 C 594.856 503.763, 607.225 493.753, 609.927 476.974 C 610.893 470.977, 610.695 468.868, 609.191 469.112 C 608.811 469.174, 599.093 470.261, 587.596 471.530 M 182.245 646.750 L 182.500 734.500 188.750 734.798 L 195 735.095 195.008 701.798 C 195.012 683.484, 195.474 665.671, 196.035 662.213 C 199.003 643.928, 209.117 630.941, 224.663 625.455 C 230.129 623.526, 233.520 623.038, 241.568 623.021 C 260.829 622.981, 271.172 628.558, 277.693 642.500 L 280.500 648.500 281 691.500 L 281.500 734.500 287.808 734.799 L 294.115 735.098 293.794 691.299 L 293.472 647.500 290.875 640.791 C 285.164 626.036, 273.739 616.273, 257.781 612.511 C 244.096 609.284, 226.054 611.721, 215.159 618.268 C 209.674 621.564, 201.562 629.692, 199.707 633.750 C 199.142 634.987, 197.851 636, 196.839 636 C 195.085 636, 195 634.213, 195 597.500 L 195 559 188.495 559 L 181.989 559 182.245 646.750 M 624.245 646.750 L 624.500 734.500 630.750 734.798 L 637 735.095 637 647.048 L 637 559 630.495 559 L 623.989 559 624.245 646.750 M 793 647 L 793 735 799.500 735 L 806 735 806 700.958 C 806 673.827, 806.321 665.363, 807.580 659.267 C 810.344 645.887, 816.466 636.240, 826.179 629.963 C 834.643 624.492, 842.431 622.691, 855.665 623.144 C 865.580 623.483, 867.187 623.817, 873.247 626.801 C 881.063 630.648, 886.018 635.953, 889.240 643.921 C 891.441 649.362, 891.504 650.554, 891.798 692.250 L 892.099 735 898.550 735 L 905 735 904.983 694.750 C 904.963 650.126, 904.489 645.450, 898.923 635.007 C 892.920 623.745, 880.795 614.997, 867.201 612.121 C 854.766 609.490, 836.835 611.977, 827.101 617.681 C 821.087 621.205, 813.809 628.083, 811.441 632.479 C 810.369 634.470, 808.775 636, 807.773 636 C 806.106 636, 806 633.687, 806 597.500 L 806 559 799.500 559 L 793 559 793 647 M 704 590 L 704 613 683 613 L 662 613 662 619 L 662 625 683 625 L 704 625 704 672.757 C 704 700.963, 704.401 721.912, 704.980 723.931 C 706.335 728.655, 710.390 732.573, 715.336 733.936 C 717.953 734.657, 726.002 734.975, 737 734.792 L 754.500 734.500 754.800 729.316 L 755.100 724.133 737.959 723.816 C 721.334 723.510, 720.762 723.429, 718.910 721.139 C 717.091 718.891, 717 716.547, 717 671.908 L 717 625.038 739.250 624.769 L 761.500 624.500 761.500 619 L 761.500 613.500 739.250 613.231 L 717 612.962 717 589.981 L 717 567 710.500 567 L 704 567 704 590 M 370 611.560 C 349.947 615.882, 332.092 632.261, 325.912 652 C 318.022 677.205, 325.063 706.030, 343.097 722.350 C 354.265 732.456, 369.665 738.015, 386.410 737.983 C 404.630 737.948, 417.782 733.145, 428.441 722.633 C 433.275 717.865, 442 705.597, 442 703.568 C 442 703.037, 429.960 698.698, 429.645 699.116 C 429.486 699.327, 428.121 701.655, 426.613 704.290 C 425.104 706.924, 422.479 710.663, 420.779 712.598 C 405.420 730.091, 372.820 731.385, 353.168 715.282 C 344.794 708.420, 338.165 695.260, 336.407 682.011 L 335.742 677 390.015 677 L 444.287 677 443.711 666.750 C 442.714 649.027, 438.588 638.205, 428.723 627.439 C 415.743 613.274, 391.927 606.834, 370 611.560 M 516.500 611.482 C 502.943 614.471, 490.030 621.687, 481.667 630.946 C 478.017 634.986, 469.998 646.644, 470.001 647.905 C 470.003 648.530, 481.132 653.296, 481.411 652.792 C 481.500 652.631, 483.220 649.955, 485.233 646.845 C 496.572 629.330, 509.904 622, 530.424 622 C 542.568 622, 549.426 623.731, 556.651 628.621 C 565.661 634.719, 569.960 642.964, 570.759 655.679 L 571.273 663.858 567.887 664.411 C 566.024 664.714, 551.675 666.083, 536 667.452 C 500.130 670.584, 491.342 672.726, 480.369 681.011 C 476.484 683.944, 474.328 686.619, 471.942 691.466 C 469.001 697.440, 468.775 698.586, 469.206 705.307 C 470.451 724.715, 486.436 736.536, 513 737.693 C 536.022 738.695, 553.848 731.528, 564.792 716.868 C 570.248 709.561, 570.889 710.197, 571.217 723.250 L 571.500 734.500 577.750 734.798 L 584 735.095 583.983 694.298 C 583.964 650.116, 583.452 644.533, 578.496 634.403 C 573.087 623.347, 560.682 614.523, 546.246 611.464 C 537.952 609.707, 524.515 609.715, 516.500 611.482 M 368.270 624.086 C 352.038 629.229, 339.460 644.155, 336.532 661.750 L 335.824 666 382.912 666 L 430 666 429.979 661.250 C 429.952 655.081, 426.101 644.273, 421.786 638.258 C 417.368 632.099, 409.242 626.464, 401.192 623.977 C 392.457 621.280, 376.967 621.331, 368.270 624.086 M 552.500 676.607 C 514.467 680.066, 506.523 681.097, 499.768 683.446 C 487.474 687.721, 482 694.054, 482 704 C 482 717.650, 493.297 725.778, 513.635 726.762 C 546.926 728.372, 571 708.251, 571 678.816 C 571 675.802, 570.632 675.026, 569.250 675.122 C 568.288 675.188, 560.750 675.857, 552.500 676.607" stroke="none" fill="#f9fafa" fill-rule="evenodd"/><path d="M 578.500 0.662 C 488.955 7.953, 404.192 32.888, 311.737 79.137 C 233.498 118.274, 179.092 155.280, 134.045 200 C 58.190 275.305, 13.521 367.705, 1.826 473.500 C 0.052 489.549, 0.031 551.513, 1.794 566.500 C 6.631 607.610, 13.617 639.730, 25.543 675.695 C 51.178 753.003, 92.908 823.127, 152.478 889 C 168.474 906.689, 208.914 946.297, 225.665 960.683 C 318.401 1040.322, 407.557 1083.635, 506.500 1097.115 C 525.860 1099.752, 571.678 1100.794, 592.284 1099.065 C 651.340 1094.109, 706.076 1078.534, 764.617 1050.025 C 809.780 1028.032, 850.798 1001.908, 892.299 968.707 C 916.089 949.674, 929.253 937.894, 950.558 916.573 C 982.005 885.102, 1006.093 855.470, 1027.033 822.500 C 1066.043 761.078, 1088.855 697.296, 1097.493 625.500 C 1099.192 611.376, 1101.293 534.469, 1100.757 506 C 1100.503 492.461, 1100.386 494.256, 1100.106 516 L 1099.766 542.500 1098.444 528 C 1089.775 432.907, 1052.937 328.338, 992.868 228.307 C 936.641 134.675, 863.357 67.811, 777.412 31.726 C 725.282 9.838, 672.009 -0.209, 610.089 0.168 C 594.915 0.261, 580.700 0.483, 578.500 0.662 M 474.685 347.017 C 470.737 348.202, 465.270 352.578, 463.528 355.947 C 454.203 373.978, 473.622 391.869, 492.063 382.236 C 503.854 376.076, 505.719 360.106, 495.676 351.289 C 490.229 346.506, 481.979 344.827, 474.685 347.017 M 182.244 437.750 L 182.500 524.500 197 524.500 L 211.500 524.500 211.767 499.828 L 212.035 475.155 218.767 474.480 C 222.470 474.108, 227.206 473.442, 229.290 472.999 C 233.712 472.061, 231.279 469.207, 255.510 503.750 L 270.416 525 287.708 525 C 298.762 525, 305 524.633, 305 523.983 C 305 523.424, 294.803 509.385, 282.340 492.786 C 269.876 476.188, 260.169 462.444, 260.767 462.244 C 261.365 462.045, 264.956 459.704, 268.746 457.042 C 276.579 451.541, 285.516 442.910, 291.755 434.819 C 296.114 429.168, 306 413.280, 306 411.928 C 306 411.514, 302.288 409.055, 297.750 406.465 C 293.212 403.874, 288.107 400.916, 286.405 399.891 L 283.310 398.029 278.086 406.855 C 268.813 422.521, 256.493 434.131, 241.893 440.963 C 234.411 444.464, 221.319 448, 215.840 448 L 212 448 212 399.500 L 212 351 196.994 351 L 181.989 351 182.244 437.750 M 373.061 399.046 C 354.061 401.625, 337.916 411.026, 326.573 426.115 C 322.814 431.115, 322.155 432.560, 323.201 433.506 C 324.841 434.991, 344.187 446.183, 344.436 445.791 C 344.538 445.631, 346.075 443.182, 347.851 440.348 C 352.100 433.573, 359.820 426.449, 365.741 423.838 C 371.687 421.216, 383.935 420.305, 390.871 421.969 C 402.249 424.699, 410 433.697, 410 444.177 C 410 448.327, 409.702 449.027, 407.750 449.452 C 406.512 449.721, 394.025 451.102, 380 452.520 C 365.975 453.939, 351.832 455.785, 348.571 456.623 C 336.274 459.785, 326.910 466.458, 322.173 475.437 C 319.794 479.946, 319.501 481.593, 319.501 490.500 C 319.500 499.404, 319.804 501.118, 322.270 506.142 C 325.351 512.415, 331.633 518.752, 337.982 521.991 C 344.698 525.417, 356.522 528.001, 365.410 527.985 C 383.192 527.953, 396.654 522.044, 404.161 510.975 C 405.997 508.267, 408.288 506.040, 409.250 506.026 C 410.796 506.003, 411 507.109, 411 515.500 L 411 525 424.500 525 L 438 525 437.988 482.250 C 437.976 436.795, 437.761 434.335, 432.940 424.376 C 427.865 413.893, 414.734 404.137, 401 400.645 C 393.437 398.722, 380.786 397.998, 373.061 399.046 M 572.624 399.095 C 563.969 400.257, 553.461 403.882, 546.287 408.179 C 539.661 412.149, 529.589 421.695, 525.175 428.188 L 521.989 432.877 531.244 438.296 C 546.071 446.977, 544.640 446.625, 546.923 442.151 C 550.436 435.264, 558.374 427.561, 565.209 424.405 C 570.889 421.782, 572.520 421.500, 582 421.500 C 591.897 421.500, 592.816 421.678, 598 424.604 C 605.092 428.606, 608.708 433.735, 610.125 441.801 C 610.734 445.266, 610.950 448.383, 610.606 448.728 C 610.262 449.072, 597.722 450.618, 582.740 452.164 C 567.758 453.710, 552.638 455.673, 549.140 456.526 C 536.365 459.642, 526.898 466.434, 522.311 475.776 C 519.860 480.766, 519.500 482.657, 519.500 490.521 C 519.500 498.701, 519.807 500.165, 522.792 506.229 C 530.163 521.203, 546.852 528.864, 569.500 527.671 C 586.104 526.797, 597.860 521.124, 604.500 510.782 C 606.150 508.211, 608.271 506.084, 609.212 506.054 C 610.690 506.007, 610.964 507.271, 611.212 515.250 L 611.500 524.500 624.750 524.779 L 638 525.058 638 481.634 C 638 441.211, 637.863 437.769, 636.024 431.813 C 629.982 412.250, 612.604 400.395, 587.500 398.709 C 583.100 398.414, 576.406 398.587, 572.624 399.095 M 468 463.528 L 468 525.056 481.750 524.778 L 495.500 524.500 495.758 463.250 L 496.015 402 482.008 402 L 468 402 468 463.528 M 387.596 471.530 C 362.587 474.288, 360.656 474.625, 355.891 477.056 C 350.374 479.870, 347.999 483.432, 348.004 488.885 C 348.009 495.081, 350.687 499.177, 356.652 502.113 C 360.886 504.198, 362.893 504.496, 372.500 504.472 C 381.624 504.448, 384.523 504.043, 389.500 502.097 C 397.770 498.864, 406.245 490.281, 408.429 482.929 C 410.057 477.446, 410.564 468.916, 409.250 469.112 C 408.837 469.174, 399.093 470.261, 387.596 471.530 M 587.596 471.530 C 562.489 474.299, 560.667 474.619, 555.757 477.124 C 550.871 479.617, 548.009 484.277, 548.004 489.747 C 548.001 493.227, 548.655 494.719, 551.624 498.005 C 556.623 503.539, 563.268 505.415, 575.582 504.771 C 594.856 503.763, 607.225 493.753, 609.927 476.974 C 610.893 470.977, 610.695 468.868, 609.191 469.112 C 608.811 469.174, 599.093 470.261, 587.596 471.530 M 0.442 520 C 0.442 536.225, 0.580 542.862, 0.748 534.750 C 0.916 526.638, 0.916 513.362, 0.748 505.250 C 0.580 497.137, 0.442 503.775, 0.442 520 M 182.245 646.750 L 182.500 734.500 188.750 734.798 L 195 735.095 195.008 701.798 C 195.012 683.484, 195.474 665.671, 196.035 662.213 C 199.003 643.928, 209.117 630.941, 224.663 625.455 C 230.129 623.526, 233.520 623.038, 241.568 623.021 C 260.829 622.981, 271.172 628.558, 277.693 642.500 L 280.500 648.500 281 691.500 L 281.500 734.500 287.808 734.799 L 294.115 735.098 293.794 691.299 L 293.472 647.500 290.875 640.791 C 285.164 626.036, 273.739 616.273, 257.781 612.511 C 244.096 609.284, 226.054 611.721, 215.159 618.268 C 209.674 621.564, 201.562 629.692, 199.707 633.750 C 199.142 634.987, 197.851 636, 196.839 636 C 195.085 636, 195 634.213, 195 597.500 L 195 559 188.495 559 L 181.989 559 182.245 646.750 M 624.245 646.750 L 624.500 734.500 630.750 734.798 L 637 735.095 637 647.048 L 637 559 630.495 559 L 623.989 559 624.245 646.750 M 793 647 L 793 735 799.500 735 L 806 735 806 700.958 C 806 673.827, 806.321 665.363, 807.580 659.267 C 810.344 645.887, 816.466 636.240, 826.179 629.963 C 834.643 624.492, 842.431 622.691, 855.665 623.144 C 865.580 623.483, 867.187 623.817, 873.247 626.801 C 881.063 630.648, 886.018 635.953, 889.240 643.921 C 891.441 649.362, 891.504 650.554, 891.798 692.250 L 892.099 735 898.550 735 L 905 735 904.983 694.750 C 904.963 650.126, 904.489 645.450, 898.923 635.007 C 892.920 623.745, 880.795 614.997, 867.201 612.121 C 854.766 609.490, 836.835 611.977, 827.101 617.681 C 821.087 621.205, 813.809 628.083, 811.441 632.479 C 810.369 634.470, 808.775 636, 807.773 636 C 806.106 636, 806 633.687, 806 597.500 L 806 559 799.500 559 L 793 559 793 647 M 704 590 L 704 613 683 613 L 662 613 662 619 L 662 625 683 625 L 704 625 704 672.757 C 704 700.963, 704.401 721.912, 704.980 723.931 C 706.335 728.655, 710.390 732.573, 715.336 733.936 C 717.953 734.657, 726.002 734.975, 737 734.792 L 754.500 734.500 754.800 729.316 L 755.100 724.133 737.959 723.816 C 721.334 723.510, 720.762 723.429, 718.910 721.139 C 717.091 718.891, 717 716.547, 717 671.908 L 717 625.038 739.250 624.769 L 761.500 624.500 761.500 619 L 761.500 613.500 739.250 613.231 L 717 612.962 717 589.981 L 717 567 710.500 567 L 704 567 704 590 M 370 611.560 C 349.947 615.882, 332.092 632.261, 325.912 652 C 318.022 677.205, 325.063 706.030, 343.097 722.350 C 354.265 732.456, 369.665 738.015, 386.410 737.983 C 404.630 737.948, 417.782 733.145, 428.441 722.633 C 433.275 717.865, 442 705.597, 442 703.568 C 442 703.037, 429.960 698.698, 429.645 699.116 C 429.486 699.327, 428.121 701.655, 426.613 704.290 C 425.104 706.924, 422.479 710.663, 420.779 712.598 C 405.420 730.091, 372.820 731.385, 353.168 715.282 C 344.794 708.420, 338.165 695.260, 336.407 682.011 L 335.742 677 390.015 677 L 444.287 677 443.711 666.750 C 442.714 649.027, 438.588 638.205, 428.723 627.439 C 415.743 613.274, 391.927 606.834, 370 611.560 M 516.500 611.482 C 502.943 614.471, 490.030 621.687, 481.667 630.946 C 478.017 634.986, 469.998 646.644, 470.001 647.905 C 470.003 648.530, 481.132 653.296, 481.411 652.792 C 481.500 652.631, 483.220 649.955, 485.233 646.845 C 496.572 629.330, 509.904 622, 530.424 622 C 542.568 622, 549.426 623.731, 556.651 628.621 C 565.661 634.719, 569.960 642.964, 570.759 655.679 L 571.273 663.858 567.887 664.411 C 566.024 664.714, 551.675 666.083, 536 667.452 C 500.130 670.584, 491.342 672.726, 480.369 681.011 C 476.484 683.944, 474.328 686.619, 471.942 691.466 C 469.001 697.440, 468.775 698.586, 469.206 705.307 C 470.451 724.715, 486.436 736.536, 513 737.693 C 536.022 738.695, 553.848 731.528, 564.792 716.868 C 570.248 709.561, 570.889 710.197, 571.217 723.250 L 571.500 734.500 577.750 734.798 L 584 735.095 583.983 694.298 C 583.964 650.116, 583.452 644.533, 578.496 634.403 C 573.087 623.347, 560.682 614.523, 546.246 611.464 C 537.952 609.707, 524.515 609.715, 516.500 611.482 M 368.270 624.086 C 352.038 629.229, 339.460 644.155, 336.532 661.750 L 335.824 666 382.912 666 L 430 666 429.979 661.250 C 429.952 655.081, 426.101 644.273, 421.786 638.258 C 417.368 632.099, 409.242 626.464, 401.192 623.977 C 392.457 621.280, 376.967 621.331, 368.270 624.086 M 552.500 676.607 C 514.467 680.066, 506.523 681.097, 499.768 683.446 C 487.474 687.721, 482 694.054, 482 704 C 482 717.650, 493.297 725.778, 513.635 726.762 C 546.926 728.372, 571 708.251, 571 678.816 C 571 675.802, 570.632 675.026, 569.250 675.122 C 568.288 675.188, 560.750 675.857, 552.500 676.607" stroke="none" fill="#0c2c5c" fill-rule="evenodd"/></svg>