<svg xmlns="http://www.w3.org/2000/svg" width="338" height="340" viewBox="0 0 338 340" version="1.1"><path d="M 181 47.066 C 168.007 47.948, 153.921 49.757, 149.601 51.099 C 148.006 51.595, 145.474 52, 143.973 52 C 142.473 52, 140.784 52.563, 140.220 53.250 C 139.192 54.504, 140.144 74.921, 141.590 82.629 C 142.357 86.715, 141.119 86.639, 158 83.640 C 207.641 74.823, 265.201 84.188, 290.944 105.271 C 294.299 108.018, 297.608 109.981, 298.384 109.683 C 300.586 108.838, 305.262 98.332, 305.764 93.101 C 306.328 87.235, 303.999 82.234, 297.831 76.066 C 284.675 62.910, 262.478 53.875, 231.500 49.067 C 224.839 48.033, 196.587 45.841, 193.813 46.143 C 193.091 46.221, 187.325 46.637, 181 47.066 M 31.552 89.750 C 31.877 91.263, 32.605 94.750, 33.169 97.500 C 38.918 125.519, 39.849 128.738, 42.891 131.120 C 44.326 132.244, 47.526 135.039, 50.002 137.332 C 52.479 139.624, 58.779 145.325, 64.002 150 C 69.226 154.675, 73.725 158.737, 74 159.026 C 74.275 159.316, 77.378 162.016, 80.896 165.026 C 84.414 168.037, 88.464 171.655, 89.896 173.067 C 96.743 179.816, 118.359 189.988, 135 194.291 C 152.371 198.784, 159.179 199.500, 184.500 199.500 C 210.613 199.500, 218.575 198.662, 239 193.765 C 265.063 187.517, 282.100 178.906, 292.948 166.500 C 299.679 158.801, 301.506 155.108, 302.838 146.500 C 304.585 135.212, 306.245 116.787, 305.855 113 L 305.495 109.500 303.663 112.864 C 290.409 137.200, 238.671 156.013, 185 156.013 C 147.435 156.013, 110.073 146.118, 85.500 129.661 C 80.152 126.079, 58.699 109.099, 53.500 104.334 C 52.400 103.325, 49.025 100.481, 46 98.014 C 42.975 95.546, 40.275 93.289, 40 92.998 C 38.188 91.078, 32.684 87, 31.904 87 C 31.386 87, 31.228 88.237, 31.552 89.750 M 170.500 93.148 C 153.819 95.626, 150.223 96.276, 147 97.396 L 143.500 98.613 143.767 106.056 C 143.914 110.150, 144.290 115.916, 144.604 118.869 L 145.174 124.238 149.837 123.620 C 152.402 123.280, 157.200 122.570, 160.500 122.042 C 180.659 118.817, 213.275 118.377, 230 121.105 C 244.880 123.532, 262.446 128.154, 268.272 131.175 C 269.570 131.848, 271.576 131.270, 275.772 129.015 C 282.848 125.212, 291 119.315, 291 118 C 291 116.536, 282.323 110.440, 275.500 107.110 C 269.240 104.054, 254.733 98.992, 247 97.165 C 242.407 96.080, 235.117 94.859, 222.307 93.028 C 213.742 91.804, 179.008 91.884, 170.500 93.148 M 173 131.128 C 160.793 132.767, 148.502 135.199, 147.250 136.223 C 145.590 137.580, 145.663 141.157, 147.398 143.530 C 148.418 144.925, 151.056 145.777, 157.148 146.679 C 167.373 148.193, 201.475 148.377, 211.307 146.972 C 222.001 145.444, 231.060 143.910, 235 142.961 C 236.925 142.497, 240.750 141.572, 243.500 140.905 C 250.009 139.327, 254.049 137.324, 252 136.691 C 245.775 134.770, 237.656 133.222, 222.307 131.028 C 213.821 129.815, 182.299 129.879, 173 131.128 M 44.456 149.750 C 45.525 155.329, 46.536 160.370, 48.884 171.824 C 50.048 177.501, 51 182.293, 51 182.471 C 51 182.838, 70.496 201.811, 85.483 216.029 C 90.974 221.238, 95.699 225.737, 95.983 226.026 C 103.086 233.251, 125.329 244.507, 139 247.795 C 141.475 248.390, 144.625 249.143, 146 249.469 C 160.621 252.933, 198.184 254.299, 214.307 251.954 C 252.283 246.430, 280.401 234.273, 291.516 218.570 C 295.778 212.549, 296.849 209.088, 298.039 197.500 C 300.193 176.534, 300.312 174, 299.144 174 C 298.515 174, 298 174.410, 298 174.910 C 298 177.062, 289.576 186.201, 283.788 190.328 C 267.547 201.907, 247.395 208.872, 215 214.102 C 204.994 215.718, 166.626 215.721, 157 214.107 C 138.396 210.988, 126.302 207.426, 112.326 200.951 C 97.644 194.148, 88.108 186.841, 67.819 166.844 C 56.675 155.861, 45.647 146, 44.508 146 C 44.085 146, 44.061 147.688, 44.456 149.750 M 56 203.404 C 56 204.979, 56.418 207.895, 56.930 209.884 C 57.441 211.873, 58.391 216.200, 59.042 219.500 C 61.431 231.617, 61.482 231.690, 82.945 253.896 C 107.140 278.929, 115.011 284.935, 132.756 291.910 C 147.618 297.751, 167.733 301.004, 188.924 300.992 C 201.597 300.985, 221.203 299.254, 229 297.454 C 230.375 297.137, 233.525 296.403, 236 295.824 C 261.863 289.774, 283.457 277.035, 289.579 264.216 C 292.563 257.968, 295.395 231, 293.067 231 C 292.554 231, 291.868 231.840, 291.542 232.866 C 290.025 237.648, 277.361 247.793, 265.500 253.729 C 255.232 258.868, 238.975 263.893, 226 265.938 C 221.875 266.588, 216.062 267.543, 213.083 268.060 C 210.104 268.577, 199.040 269, 188.496 269 C 158.520 269, 138.885 265.171, 119.161 255.479 C 105.836 248.932, 100.223 244.161, 65.250 209.664 C 56.527 201.059, 56 200.703, 56 203.404" stroke="none" fill="#2a2a2a" fill-rule="evenodd"/><path d="M -0 170.003 L -0 340.006 169.250 339.753 L 338.500 339.500 338.753 169.750 L 339.006 0 169.503 0 L 0 0 -0 170.003 M 0.489 170.500 C 0.489 264, 0.606 302.398, 0.750 255.829 C 0.894 209.260, 0.894 132.760, 0.750 85.829 C 0.606 38.898, 0.489 77, 0.489 170.500 M 181 47.066 C 168.007 47.948, 153.921 49.757, 149.601 51.099 C 148.006 51.595, 145.474 52, 143.973 52 C 142.473 52, 140.784 52.563, 140.220 53.250 C 139.192 54.504, 140.144 74.921, 141.590 82.629 C 142.357 86.715, 141.119 86.639, 158 83.640 C 207.641 74.823, 265.201 84.188, 290.944 105.271 C 294.299 108.018, 297.608 109.981, 298.384 109.683 C 300.586 108.838, 305.262 98.332, 305.764 93.101 C 306.328 87.235, 303.999 82.234, 297.831 76.066 C 284.675 62.910, 262.478 53.875, 231.500 49.067 C 224.839 48.033, 196.587 45.841, 193.813 46.143 C 193.091 46.221, 187.325 46.637, 181 47.066 M 31.552 89.750 C 31.877 91.263, 32.605 94.750, 33.169 97.500 C 38.918 125.519, 39.849 128.738, 42.891 131.120 C 44.326 132.244, 47.526 135.039, 50.002 137.332 C 52.479 139.624, 58.779 145.325, 64.002 150 C 69.226 154.675, 73.725 158.737, 74 159.026 C 74.275 159.316, 77.378 162.016, 80.896 165.026 C 84.414 168.037, 88.464 171.655, 89.896 173.067 C 96.743 179.816, 118.359 189.988, 135 194.291 C 152.371 198.784, 159.179 199.500, 184.500 199.500 C 210.613 199.500, 218.575 198.662, 239 193.765 C 265.063 187.517, 282.100 178.906, 292.948 166.500 C 299.679 158.801, 301.506 155.108, 302.838 146.500 C 304.585 135.212, 306.245 116.787, 305.855 113 L 305.495 109.500 303.663 112.864 C 290.409 137.200, 238.671 156.013, 185 156.013 C 147.435 156.013, 110.073 146.118, 85.500 129.661 C 80.152 126.079, 58.699 109.099, 53.500 104.334 C 52.400 103.325, 49.025 100.481, 46 98.014 C 42.975 95.546, 40.275 93.289, 40 92.998 C 38.188 91.078, 32.684 87, 31.904 87 C 31.386 87, 31.228 88.237, 31.552 89.750 M 170.500 93.148 C 153.819 95.626, 150.223 96.276, 147 97.396 L 143.500 98.613 143.767 106.056 C 143.914 110.150, 144.290 115.916, 144.604 118.869 L 145.174 124.238 149.837 123.620 C 152.402 123.280, 157.200 122.570, 160.500 122.042 C 180.659 118.817, 213.275 118.377, 230 121.105 C 244.880 123.532, 262.446 128.154, 268.272 131.175 C 269.570 131.848, 271.576 131.270, 275.772 129.015 C 282.848 125.212, 291 119.315, 291 118 C 291 116.536, 282.323 110.440, 275.500 107.110 C 269.240 104.054, 254.733 98.992, 247 97.165 C 242.407 96.080, 235.117 94.859, 222.307 93.028 C 213.742 91.804, 179.008 91.884, 170.500 93.148 M 173 131.128 C 160.793 132.767, 148.502 135.199, 147.250 136.223 C 145.590 137.580, 145.663 141.157, 147.398 143.530 C 148.418 144.925, 151.056 145.777, 157.148 146.679 C 167.373 148.193, 201.475 148.377, 211.307 146.972 C 222.001 145.444, 231.060 143.910, 235 142.961 C 236.925 142.497, 240.750 141.572, 243.500 140.905 C 250.009 139.327, 254.049 137.324, 252 136.691 C 245.775 134.770, 237.656 133.222, 222.307 131.028 C 213.821 129.815, 182.299 129.879, 173 131.128 M 44.456 149.750 C 45.525 155.329, 46.536 160.370, 48.884 171.824 C 50.048 177.501, 51 182.293, 51 182.471 C 51 182.838, 70.496 201.811, 85.483 216.029 C 90.974 221.238, 95.699 225.737, 95.983 226.026 C 103.086 233.251, 125.329 244.507, 139 247.795 C 141.475 248.390, 144.625 249.143, 146 249.469 C 160.621 252.933, 198.184 254.299, 214.307 251.954 C 252.283 246.430, 280.401 234.273, 291.516 218.570 C 295.778 212.549, 296.849 209.088, 298.039 197.500 C 300.193 176.534, 300.312 174, 299.144 174 C 298.515 174, 298 174.410, 298 174.910 C 298 177.062, 289.576 186.201, 283.788 190.328 C 267.547 201.907, 247.395 208.872, 215 214.102 C 204.994 215.718, 166.626 215.721, 157 214.107 C 138.396 210.988, 126.302 207.426, 112.326 200.951 C 97.644 194.148, 88.108 186.841, 67.819 166.844 C 56.675 155.861, 45.647 146, 44.508 146 C 44.085 146, 44.061 147.688, 44.456 149.750 M 56 203.404 C 56 204.979, 56.418 207.895, 56.930 209.884 C 57.441 211.873, 58.391 216.200, 59.042 219.500 C 61.431 231.617, 61.482 231.690, 82.945 253.896 C 107.140 278.929, 115.011 284.935, 132.756 291.910 C 147.618 297.751, 167.733 301.004, 188.924 300.992 C 201.597 300.985, 221.203 299.254, 229 297.454 C 230.375 297.137, 233.525 296.403, 236 295.824 C 261.863 289.774, 283.457 277.035, 289.579 264.216 C 292.563 257.968, 295.395 231, 293.067 231 C 292.554 231, 291.868 231.840, 291.542 232.866 C 290.025 237.648, 277.361 247.793, 265.500 253.729 C 255.232 258.868, 238.975 263.893, 226 265.938 C 221.875 266.588, 216.062 267.543, 213.083 268.060 C 210.104 268.577, 199.040 269, 188.496 269 C 158.520 269, 138.885 265.171, 119.161 255.479 C 105.836 248.932, 100.223 244.161, 65.250 209.664 C 56.527 201.059, 56 200.703, 56 203.404" stroke="none" fill="#f8f8f8" fill-rule="evenodd"/></svg>