<svg xmlns="http://www.w3.org/2000/svg" width="1229" height="483" viewBox="0 0 1229 483" version="1.1"><path d="" stroke="none" fill="#201c1c" fill-rule="evenodd"/><path d="M 268.500 161.999 C 264.100 162.390, 257.198 163.305, 253.161 164.031 L 245.823 165.352 246.464 173.426 C 247.638 188.221, 247.398 187.897, 255.788 185.962 C 270.664 182.530, 298.547 183.061, 315 187.089 C 324.996 189.536, 338.132 195.603, 342.812 199.935 C 344.633 201.621, 346.341 203, 346.608 203 C 347.551 203, 351.981 192.466, 351.990 190.200 C 352.029 181.118, 337.137 170.462, 317.404 165.453 C 302.534 161.677, 285.581 160.480, 268.500 161.999 M 177.996 186.691 C 177.994 187.136, 179.201 193.256, 180.679 200.291 L 183.366 213.082 196.933 225.311 C 213.639 240.369, 216.795 242.841, 225 247.296 C 238.462 254.605, 254.381 258, 275.194 258 C 307.572 258, 336.650 248.214, 346.499 234.002 C 349.018 230.366, 349.494 228.305, 351.065 214.222 C 352.030 205.575, 352.690 198.367, 352.531 198.204 C 352.372 198.042, 350.868 200.344, 349.189 203.320 C 340.485 218.742, 309.400 229.991, 275.500 229.987 C 258.050 229.984, 243.260 227.372, 229 221.775 C 218.090 217.492, 211.296 213.038, 195.019 199.493 C 179.430 186.521, 178.002 185.447, 177.996 186.691 M 259 191.592 C 253.775 192.430, 249.224 193.427, 248.886 193.808 C 248.219 194.558, 249.544 209.877, 250.344 210.677 C 250.612 210.945, 255.311 210.453, 260.785 209.582 C 280.650 206.424, 306.008 208.023, 322.030 213.443 L 329.379 215.930 334.506 212.997 C 337.326 211.383, 340.431 209.181, 341.407 208.103 C 343.127 206.202, 343.054 206.052, 338.984 203.103 C 333.828 199.368, 322.009 194.732, 312 192.519 C 301.165 190.123, 271.404 189.603, 259 191.592 M 650.552 200.144 C 636.950 201.887, 626.537 209.101, 620.800 220.755 C 617.873 226.700, 617.564 228.254, 617.183 238.967 C 616.861 247.984, 617.156 252.040, 618.464 256.590 C 621.927 268.638, 630.082 277.418, 640.923 280.768 C 648.415 283.084, 666.761 282.853, 676.500 280.320 L 683.500 278.500 683.770 257.750 L 684.041 237 668.520 237 L 653 237 653 243 L 653 249 661.500 249 L 670 249 670 258.933 C 670 270.554, 670.450 270.128, 658.047 270.262 C 640.666 270.449, 631.752 260.907, 631.722 242.082 C 631.707 232.585, 633.164 227.267, 637.284 221.792 C 644.290 212.481, 657.033 209.604, 671.491 214.070 C 675.177 215.209, 678.316 215.996, 678.467 215.820 C 679.069 215.116, 683 205.693, 683 204.953 C 683 203.665, 674.067 201.080, 666 200.034 C 661.875 199.499, 658.275 199.105, 658 199.157 C 657.725 199.210, 654.374 199.654, 650.552 200.144 M 1011 200.082 C 994.141 203.002, 983.942 214.887, 982.110 233.750 C 979.857 256.936, 987.712 273.894, 1003.531 279.994 C 1012.040 283.276, 1026.960 283.276, 1035.469 279.994 C 1043.531 276.885, 1050.926 269.487, 1053.891 261.563 C 1060.786 243.134, 1057.601 220.471, 1046.565 209.435 C 1038.375 201.244, 1024.841 197.685, 1011 200.082 M 562.632 200.786 C 561.657 202.364, 533 279.931, 533 280.993 C 533 281.712, 535.485 281.987, 540.250 281.794 L 547.500 281.500 551.428 270.250 L 555.356 259 570.049 259 L 584.743 259 588.736 270.250 L 592.729 281.500 600.489 281.794 C 606.510 282.023, 608.140 281.799, 607.766 280.794 C 607.501 280.082, 600.624 261.613, 592.484 239.750 L 577.685 200 570.401 200 C 566.396 200, 562.900 200.354, 562.632 200.786 M 726.473 201.250 C 726.218 201.938, 719.483 220.017, 711.505 241.427 C 703.527 262.838, 697 280.725, 697 281.177 C 697 281.630, 700.289 282, 704.308 282 L 711.616 282 715.558 270.502 L 719.500 259.004 734.178 259.002 L 748.856 259 750.767 264.250 C 751.817 267.137, 753.705 272.313, 754.960 275.750 L 757.244 282 764.622 282 C 768.680 282, 772 281.723, 772 281.384 C 772 280.894, 756.956 240.235, 744.014 205.750 L 741.856 200 734.397 200 C 729.343 200, 726.788 200.403, 726.473 201.250 M 434 241.500 L 434 282 440.486 282 L 446.972 282 447.236 250.979 L 447.500 219.958 455.398 242.729 C 459.743 255.253, 464.630 269.233, 466.259 273.795 L 469.222 282.090 475.360 281.795 L 481.499 281.500 492.695 250.500 C 498.853 233.450, 504.028 219.160, 504.196 218.744 C 504.363 218.328, 504.370 232.390, 504.210 249.994 L 503.920 282 510.960 282 L 518 282 518 241.500 L 518 201 508.121 201 C 498.280 201, 498.239 201.010, 497.136 203.750 C 495.523 207.758, 476.010 262.242, 475.944 262.923 C 475.913 263.241, 471.634 251.350, 466.435 236.500 C 461.236 221.650, 456.274 207.588, 455.409 205.250 L 453.835 201 443.917 201 L 434 201 434 241.500 M 783 206.979 L 783 212.958 802.306 213.229 L 821.611 213.500 801.871 242.500 C 782.525 270.921, 782.130 271.605, 782.066 276.765 L 782 282.030 811.250 281.765 L 840.500 281.500 840.500 275.500 L 840.500 269.500 820.347 269 L 800.194 268.500 819.578 240 C 838.639 211.976, 838.963 211.412, 838.981 206.250 L 839 201 811 201 L 783 201 783 206.979 M 859 241.500 L 859 282 866 282 L 873 282 873 241.500 L 873 201 866 201 L 859 201 859 241.500 M 897 241.500 L 897 282 903.622 282 L 910.244 282 909.832 250.976 L 909.420 219.952 911.460 223.324 C 912.582 225.179, 921.150 239.134, 930.500 254.335 L 947.500 281.973 955.750 281.987 L 964 282 964 241.500 L 964 201 957.393 201 L 950.786 201 951.143 231.364 L 951.500 261.729 949.437 258.614 C 948.303 256.901, 939.811 243.238, 930.567 228.250 L 913.760 201 905.380 201 L 897 201 897 241.500 M 1009.459 213.880 C 1000.918 217.759, 997 226.288, 997 241 C 997 260.587, 1004.269 270, 1019.395 270 C 1026.964 270, 1030.431 268.883, 1034.342 265.186 C 1039.863 259.967, 1041.373 255.546, 1041.811 243.326 C 1042.121 234.663, 1041.830 231.004, 1040.515 227.045 C 1037.167 216.966, 1030.272 212.044, 1019.500 212.044 C 1015.813 212.044, 1011.942 212.752, 1009.459 213.880 M 260.712 215.561 C 255.879 216.313, 251.566 217.150, 251.129 217.420 C 249.769 218.261, 251.119 223.830, 252.854 224.533 C 256.157 225.872, 284.519 226.260, 293.500 225.089 C 303.919 223.732, 320 220.016, 320 218.967 C 320 218.149, 317.037 217.451, 305 215.433 C 294.478 213.669, 272.464 213.732, 260.712 215.561 M 729.547 229.860 C 726.892 237.912, 724.509 245.063, 724.252 245.750 C 723.898 246.701, 726.325 247, 734.393 247 C 740.227 247, 745 246.871, 745 246.713 C 745 246.554, 742.610 239.404, 739.688 230.823 L 734.376 215.220 729.547 229.860 M 569.721 217 C 569.440 217.825, 567.081 224.705, 564.478 232.290 C 561.876 239.874, 559.970 246.303, 560.243 246.576 C 560.516 246.849, 565.224 246.944, 570.706 246.786 L 580.672 246.500 575.452 231 C 572.581 222.475, 570.002 216.175, 569.721 217 M 186.025 224.095 C 186.039 224.868, 187.122 230.450, 188.432 236.500 L 190.815 247.500 205.157 261.260 C 220.571 276.046, 227.285 281.136, 236.053 284.677 C 261.512 294.961, 300.487 293.835, 325.546 282.092 C 334.089 278.088, 342.082 271.675, 344.601 266.804 C 345.804 264.479, 349.239 239.149, 348.480 238.205 C 348.350 238.042, 347.033 239.974, 345.555 242.497 C 342.293 248.063, 337.085 252.043, 326.500 257.056 C 311.001 264.397, 292.547 267.553, 270 266.719 C 253.614 266.112, 243.055 263.865, 231.325 258.488 C 221.473 253.972, 216.876 250.632, 202.686 237.678 C 185.838 222.298, 185.995 222.426, 186.025 224.095 M 193.261 259.022 C 193.587 260.385, 194.637 265.209, 195.595 269.742 L 197.337 277.984 212.419 293.324 C 224.831 305.950, 228.739 309.296, 234.500 312.234 C 244.408 317.285, 253.448 319.809, 266.512 321.171 C 297.959 324.449, 334.292 313.572, 341.295 298.783 C 342.778 295.651, 345.604 275.271, 344.683 274.350 C 344.441 274.108, 343.108 275.847, 341.720 278.214 C 332.214 294.436, 292.580 304.654, 259 299.542 C 238.257 296.384, 230.256 291.972, 209.090 272.022 C 197.207 260.822, 192.832 257.229, 193.261 259.022" stroke="none" fill="#1c1c1c" fill-rule="evenodd"/></svg>