<svg xmlns="http://www.w3.org/2000/svg" width="698" height="696" viewBox="0 0 698 696" version="1.1"><path d="M 0 348 C 0 656.667, 0.170 696, 1.500 696 C 2.830 696, 3 656.667, 3 348 C 3 39.333, 2.830 0, 1.500 0 C 0.170 0, 0 39.333, 0 348 M 46 294.470 L 46 299.940 58.750 300.220 L 71.500 300.500 71.759 355.250 L 72.017 410 78.500 410 L 84.983 410 85.241 355.250 L 85.500 300.500 100.809 300.224 C 118.001 299.913, 116.838 300.643, 113.367 292.337 L 111.973 289 78.987 289 L 46 289 46 294.470 M 126.485 295.250 C 130.492 305.703, 137.550 324.040, 140.823 332.500 C 142.525 336.900, 146.359 347.025, 149.344 355 C 164.205 394.705, 170.519 410.047, 171.889 409.777 C 173.096 409.539, 190.918 366.284, 195.694 352 C 197.840 345.584, 206.881 322.780, 207.974 321.029 C 208.478 320.220, 209.058 319.770, 209.261 320.029 C 209.464 320.288, 212.013 326.800, 214.925 334.500 C 229.446 372.899, 244.492 410, 245.544 410 C 246.192 410, 247.645 407.637, 248.772 404.750 C 249.899 401.863, 254.950 388.925, 259.998 376 C 265.045 363.075, 269.743 350.700, 270.439 348.500 C 271.135 346.300, 274.537 337.300, 278 328.500 C 285.301 309.945, 293 289.849, 293 289.347 C 293 289.156, 290.289 289, 286.975 289 C 281.663 289, 280.843 289.266, 280.041 291.250 C 276.721 299.466, 259.701 343.737, 253.803 359.500 C 249.893 369.950, 246.383 378.858, 246.002 379.295 C 245.347 380.048, 239.434 366.149, 234.391 352 C 233.116 348.425, 230.763 342.125, 229.160 338 C 227.558 333.875, 223.297 322.850, 219.691 313.500 C 216.085 304.150, 212.423 294.813, 211.554 292.750 C 209.987 289.034, 207.679 287.842, 206.712 290.250 C 200.656 305.316, 183.209 351.007, 178.549 364 C 177.267 367.575, 175.224 372.750, 174.009 375.500 L 171.800 380.500 166.949 368.205 C 164.281 361.443, 161.117 353.118, 159.918 349.705 C 158.718 346.292, 155.184 336.975, 152.063 329 C 148.942 321.025, 144.164 308.768, 141.444 301.762 L 136.500 289.023 130.295 289.012 L 124.090 289 126.485 295.250 M 316.711 289.750 C 316.488 290.163, 311.231 303.775, 305.029 320 C 298.828 336.225, 288.794 362.325, 282.732 378 C 276.669 393.675, 271.497 407.288, 271.238 408.250 C 270.808 409.845, 271.823 410, 282.713 410 L 294.659 410 299.941 396.250 C 302.846 388.688, 308.040 375.300, 311.483 366.500 C 314.926 357.700, 318.087 349.375, 318.509 348 C 318.930 346.625, 323.309 335.150, 328.241 322.500 C 333.173 309.850, 338.037 297.137, 339.050 294.250 L 340.892 289 329.005 289 C 322.467 289, 316.935 289.337, 316.711 289.750 M 403 349.500 L 403 410 414.500 410 L 426 410 426 349.500 L 426 289 414.500 289 L 403 289 403 349.500 M 495.253 291.009 C 480.513 294.872, 465.537 306.672, 458.712 319.800 C 453.968 328.927, 451.765 338.497, 451.823 349.735 C 451.912 367.138, 458.018 382.205, 469.571 393.533 C 481.283 405.016, 494.875 410.014, 514.315 409.985 C 532.607 409.957, 547.061 404.559, 558.865 393.347 L 564.500 387.994 560.500 384.512 C 558.300 382.597, 556.113 381.023, 555.640 381.015 C 555.167 381.007, 552.438 383.137, 549.575 385.750 C 539.447 394.991, 528.663 399.008, 514.040 398.988 C 498.343 398.966, 486.930 394.043, 476.524 382.803 C 471.476 377.351, 469.610 374.389, 467.344 368.230 C 464.819 361.366, 464.504 359.212, 464.537 349 C 464.571 338.207, 464.782 337.008, 467.965 329.500 C 470.654 323.158, 472.719 320.137, 477.929 314.924 C 488.752 304.094, 501.635 299.340, 517.606 300.284 C 530.144 301.025, 539.867 305.073, 548.491 313.141 C 551.936 316.363, 555.148 318.993, 555.627 318.985 C 556.107 318.977, 558.300 317.433, 560.500 315.555 L 564.500 312.139 558.691 306.230 C 551.904 299.328, 540.636 292.986, 530.936 290.609 C 521.772 288.363, 504.618 288.555, 495.253 291.009 M 590 349.500 L 590 410 624 410 L 658 410 658 403.971 L 658 397.942 630.250 398.033 L 602.500 398.124 602.230 377.062 L 601.960 356 628.373 356 C 648.588 356, 654.896 355.707, 655.253 354.750 C 655.510 354.063, 655.671 351.250, 655.610 348.500 L 655.500 343.500 628.730 343.234 L 601.960 342.967 602.230 321.734 L 602.500 300.500 630.250 300.234 L 658 299.968 658 294.484 L 658 289 624 289 L 590 289 590 349.500 M 338.254 311.750 C 335.483 318.762, 332.923 325.478, 332.565 326.673 C 332.143 328.082, 333.371 332.656, 336.056 339.673 C 338.334 345.628, 341.233 353.200, 342.497 356.500 L 344.795 362.500 331.750 363 L 318.705 363.500 314.872 373 C 312.763 378.225, 311.029 383.194, 311.019 384.042 C 311.002 385.383, 313.678 385.578, 331.589 385.538 C 342.913 385.513, 352.571 385.735, 353.051 386.032 C 353.531 386.328, 355.872 391.730, 358.253 398.036 L 362.583 409.500 374.784 409.781 L 386.985 410.061 386.017 407.781 C 384.463 404.117, 369.054 363.558, 364.446 351 C 362.125 344.675, 357.438 332.300, 354.031 323.500 C 350.624 314.700, 347.156 305.587, 346.324 303.250 C 345.493 300.913, 344.470 299, 344.052 299 C 343.635 299, 341.026 304.738, 338.254 311.750" stroke="none" fill="#f5f5fb" fill-rule="evenodd"/><path d="M 3 348 L 3 696 350.500 696 L 698 696 698 348 L 698 0 350.500 0 L 3 0 3 348 M 46 294.470 L 46 299.940 58.750 300.220 L 71.500 300.500 71.759 355.250 L 72.017 410 78.500 410 L 84.983 410 85.241 355.250 L 85.500 300.500 100.809 300.224 C 118.001 299.913, 116.838 300.643, 113.367 292.337 L 111.973 289 78.987 289 L 46 289 46 294.470 M 126.485 295.250 C 130.492 305.703, 137.550 324.040, 140.823 332.500 C 142.525 336.900, 146.359 347.025, 149.344 355 C 164.205 394.705, 170.519 410.047, 171.889 409.777 C 173.096 409.539, 190.918 366.284, 195.694 352 C 197.840 345.584, 206.881 322.780, 207.974 321.029 C 208.478 320.220, 209.058 319.770, 209.261 320.029 C 209.464 320.288, 212.013 326.800, 214.925 334.500 C 229.446 372.899, 244.492 410, 245.544 410 C 246.192 410, 247.645 407.637, 248.772 404.750 C 249.899 401.863, 254.950 388.925, 259.998 376 C 265.045 363.075, 269.743 350.700, 270.439 348.500 C 271.135 346.300, 274.537 337.300, 278 328.500 C 285.301 309.945, 293 289.849, 293 289.347 C 293 289.156, 290.289 289, 286.975 289 C 281.663 289, 280.843 289.266, 280.041 291.250 C 276.721 299.466, 259.701 343.737, 253.803 359.500 C 249.893 369.950, 246.383 378.858, 246.002 379.295 C 245.347 380.048, 239.434 366.149, 234.391 352 C 233.116 348.425, 230.763 342.125, 229.160 338 C 227.558 333.875, 223.297 322.850, 219.691 313.500 C 216.085 304.150, 212.423 294.813, 211.554 292.750 C 209.987 289.034, 207.679 287.842, 206.712 290.250 C 200.656 305.316, 183.209 351.007, 178.549 364 C 177.267 367.575, 175.224 372.750, 174.009 375.500 L 171.800 380.500 166.949 368.205 C 164.281 361.443, 161.117 353.118, 159.918 349.705 C 158.718 346.292, 155.184 336.975, 152.063 329 C 148.942 321.025, 144.164 308.768, 141.444 301.762 L 136.500 289.023 130.295 289.012 L 124.090 289 126.485 295.250 M 316.711 289.750 C 316.488 290.163, 311.231 303.775, 305.029 320 C 298.828 336.225, 288.794 362.325, 282.732 378 C 276.669 393.675, 271.497 407.288, 271.238 408.250 C 270.808 409.845, 271.823 410, 282.713 410 L 294.659 410 299.941 396.250 C 302.846 388.688, 308.040 375.300, 311.483 366.500 C 314.926 357.700, 318.087 349.375, 318.509 348 C 318.930 346.625, 323.309 335.150, 328.241 322.500 C 333.173 309.850, 338.037 297.137, 339.050 294.250 L 340.892 289 329.005 289 C 322.467 289, 316.935 289.337, 316.711 289.750 M 403 349.500 L 403 410 414.500 410 L 426 410 426 349.500 L 426 289 414.500 289 L 403 289 403 349.500 M 495.253 291.009 C 480.513 294.872, 465.537 306.672, 458.712 319.800 C 453.968 328.927, 451.765 338.497, 451.823 349.735 C 451.912 367.138, 458.018 382.205, 469.571 393.533 C 481.283 405.016, 494.875 410.014, 514.315 409.985 C 532.607 409.957, 547.061 404.559, 558.865 393.347 L 564.500 387.994 560.500 384.512 C 558.300 382.597, 556.113 381.023, 555.640 381.015 C 555.167 381.007, 552.438 383.137, 549.575 385.750 C 539.447 394.991, 528.663 399.008, 514.040 398.988 C 498.343 398.966, 486.930 394.043, 476.524 382.803 C 471.476 377.351, 469.610 374.389, 467.344 368.230 C 464.819 361.366, 464.504 359.212, 464.537 349 C 464.571 338.207, 464.782 337.008, 467.965 329.500 C 470.654 323.158, 472.719 320.137, 477.929 314.924 C 488.752 304.094, 501.635 299.340, 517.606 300.284 C 530.144 301.025, 539.867 305.073, 548.491 313.141 C 551.936 316.363, 555.148 318.993, 555.627 318.985 C 556.107 318.977, 558.300 317.433, 560.500 315.555 L 564.500 312.139 558.691 306.230 C 551.904 299.328, 540.636 292.986, 530.936 290.609 C 521.772 288.363, 504.618 288.555, 495.253 291.009 M 590 349.500 L 590 410 624 410 L 658 410 658 403.971 L 658 397.942 630.250 398.033 L 602.500 398.124 602.230 377.062 L 601.960 356 628.373 356 C 648.588 356, 654.896 355.707, 655.253 354.750 C 655.510 354.063, 655.671 351.250, 655.610 348.500 L 655.500 343.500 628.730 343.234 L 601.960 342.967 602.230 321.734 L 602.500 300.500 630.250 300.234 L 658 299.968 658 294.484 L 658 289 624 289 L 590 289 590 349.500 M 338.254 311.750 C 335.483 318.762, 332.923 325.478, 332.565 326.673 C 332.143 328.082, 333.371 332.656, 336.056 339.673 C 338.334 345.628, 341.233 353.200, 342.497 356.500 L 344.795 362.500 331.750 363 L 318.705 363.500 314.872 373 C 312.763 378.225, 311.029 383.194, 311.019 384.042 C 311.002 385.383, 313.678 385.578, 331.589 385.538 C 342.913 385.513, 352.571 385.735, 353.051 386.032 C 353.531 386.328, 355.872 391.730, 358.253 398.036 L 362.583 409.500 374.784 409.781 L 386.985 410.061 386.017 407.781 C 384.463 404.117, 369.054 363.558, 364.446 351 C 362.125 344.675, 357.438 332.300, 354.031 323.500 C 350.624 314.700, 347.156 305.587, 346.324 303.250 C 345.493 300.913, 344.470 299, 344.052 299 C 343.635 299, 341.026 304.738, 338.254 311.750" stroke="none" fill="#542cfc" fill-rule="evenodd"/></svg>