<svg xmlns="http://www.w3.org/2000/svg" width="1842" height="767" viewBox="0 0 1842 767" version="1.1"><path d="M 46 227.495 L 46 244 84.500 244 L 123 244 123 400 L 123 556 140.500 556 L 158 556 158 400.010 L 158 244.020 202.810 243.760 L 247.621 243.500 241.423 227.500 L 235.225 211.500 140.613 211.245 L 46 210.990 46 227.495 M 270.167 211.871 C 270.350 212.350, 300.390 289.998, 336.923 384.422 L 403.345 556.101 406.371 555.800 C 409.787 555.461, 407.696 559.974, 425.514 514.500 C 430.902 500.750, 439.109 479.825, 443.751 468 C 448.394 456.175, 455.099 439.075, 458.652 430 C 462.205 420.925, 468.652 404.500, 472.978 393.500 C 477.304 382.500, 487.437 356.638, 495.497 336.028 C 503.556 315.418, 510.535 297.868, 511.007 297.028 C 511.766 295.678, 511.933 295.674, 512.449 297 C 512.770 297.825, 535.704 356.325, 563.414 427 L 613.795 555.500 616.767 555.804 C 619.436 556.076, 619.917 555.667, 621.468 551.804 C 622.419 549.437, 630.160 529.500, 638.671 507.500 C 647.181 485.500, 655.206 464.800, 656.503 461.500 C 657.801 458.200, 667.737 432.550, 678.584 404.500 C 689.431 376.450, 699.612 350.125, 701.208 346 C 702.804 341.875, 705.390 335.125, 706.954 331 C 708.518 326.875, 719.518 298.373, 731.399 267.662 C 743.279 236.951, 753 211.638, 753 211.412 C 753 211.185, 745.202 211, 735.672 211 L 718.344 211 715.043 219.750 C 713.227 224.563, 709.805 233.450, 707.437 239.500 C 702.634 251.773, 659.641 362.942, 651.553 384 C 629.245 442.083, 617.479 472, 616.944 472 C 616.599 472, 593.582 413.388, 565.797 341.750 L 515.278 211.500 511.807 211.200 L 508.336 210.899 501.017 229.700 C 496.992 240.040, 491.934 253, 489.778 258.500 C 487.622 264, 485.032 270.750, 484.024 273.500 C 483.015 276.250, 473.795 300.100, 463.535 326.500 C 453.274 352.900, 436.278 396.691, 425.765 423.813 C 414.591 452.639, 406.352 472.580, 405.934 471.813 C 405.540 471.091, 383.387 414.025, 356.704 345 C 330.021 275.975, 307.423 217.588, 306.486 215.250 L 304.783 211 287.308 211 C 277.697 211, 269.983 211.392, 270.167 211.871 M 816.118 225.267 C 813.157 233.095, 808.354 245.575, 805.444 253 C 802.534 260.425, 794.091 282.250, 786.682 301.500 C 779.272 320.750, 771.624 340.550, 769.685 345.500 C 767.746 350.450, 761.573 366.425, 755.966 381 C 750.360 395.575, 743.847 412.450, 741.493 418.500 C 726.193 457.822, 689.634 552.802, 689.241 554.250 C 688.796 555.892, 690.867 556, 722.665 556 L 756.563 556 766.722 529.750 C 772.309 515.313, 801.391 440.050, 831.349 362.500 C 861.306 284.950, 886.751 219.137, 887.894 216.250 L 889.971 211 855.735 211.017 L 821.500 211.034 816.118 225.267 M 1067 383.500 L 1067 556 1099.500 556 L 1132 556 1132 383.500 L 1132 211 1099.500 211 L 1067 211 1067 383.500 M 1360.500 211.659 C 1317.979 216.760, 1284.951 232.175, 1256.163 260.359 C 1230.859 285.132, 1215.775 312.478, 1209.023 345.824 C 1204.851 366.425, 1204.835 398.477, 1208.987 419.500 C 1221.310 481.896, 1265.723 531.497, 1324.467 548.470 C 1358.154 558.203, 1401.527 558.779, 1435.540 549.944 C 1461.346 543.240, 1486.156 530.144, 1506.132 512.680 C 1514.273 505.562, 1526 492.823, 1526 491.096 C 1526 490.662, 1520.411 486.053, 1513.580 480.854 L 1501.159 471.402 1489.737 482.542 C 1467.843 503.894, 1442.372 517.518, 1414.500 522.784 C 1400.318 525.463, 1365.833 525.140, 1352.312 522.201 C 1316.800 514.484, 1286.901 495.429, 1266.285 467.375 C 1242.136 434.514, 1234.081 388.753, 1245.009 346.500 C 1258.358 294.890, 1300.091 256.394, 1354.730 245.290 C 1368.320 242.528, 1401.914 242.809, 1415.688 245.800 C 1447.043 252.609, 1475.279 269.083, 1494.244 291.634 C 1497.667 295.704, 1500.974 298.840, 1501.593 298.603 C 1502.212 298.365, 1508.142 293.994, 1514.771 288.889 L 1526.823 279.606 1522.226 273.754 C 1514.485 263.902, 1496.904 247.710, 1486.232 240.605 C 1455.113 219.889, 1423.198 210.875, 1382 211.168 C 1371.825 211.240, 1362.150 211.462, 1360.500 211.659 M 1600 383.500 L 1600 556 1698 556 L 1796 556 1796 539.500 L 1796 523 1715.500 523 L 1635 523 1635 461.500 L 1635 400 1711 400 L 1787 400 1787 383.500 L 1787 367 1711 367 L 1635 367 1635 305.500 L 1635 244 1715.500 244 L 1796 244 1796 227.500 L 1796 211 1698 211 L 1600 211 1600 383.500 M 889.115 258.804 C 875.106 295.049, 872.022 303.060, 867.770 314.234 L 863.686 324.968 882.344 372.734 C 892.605 399.005, 901.001 420.848, 901.001 421.274 C 901 421.699, 884.175 421.924, 863.611 421.774 L 826.221 421.500 814.657 451.500 C 808.296 468, 802.798 482.288, 802.439 483.250 C 801.822 484.905, 805.153 485.001, 863.643 485.016 L 925.500 485.033 932.898 504.766 C 936.967 515.620, 942.985 531.587, 946.271 540.250 L 952.247 556 986.123 556 C 1004.755 556, 1020 555.680, 1020 555.289 C 1020 554.252, 898.818 238.629, 898.103 237.804 C 897.771 237.422, 893.727 246.872, 889.115 258.804" stroke="none" fill="#1464fc" fill-rule="evenodd"/><path d="M -0 383.501 L -0 767.001 921.250 766.751 L 1842.500 766.500 1842.751 383.250 L 1843.003 0 921.501 0 L 0 0 -0 383.501 M 0.495 384 C 0.495 594.925, 0.610 681.213, 0.750 575.750 C 0.890 470.288, 0.890 297.713, 0.750 192.250 C 0.610 86.788, 0.495 173.075, 0.495 384 M 46 227.495 L 46 244 84.500 244 L 123 244 123 400 L 123 556 140.500 556 L 158 556 158 400.010 L 158 244.020 202.810 243.760 L 247.621 243.500 241.423 227.500 L 235.225 211.500 140.613 211.245 L 46 210.990 46 227.495 M 270.167 211.871 C 270.350 212.350, 300.390 289.998, 336.923 384.422 L 403.345 556.101 406.371 555.800 C 409.787 555.461, 407.696 559.974, 425.514 514.500 C 430.902 500.750, 439.109 479.825, 443.751 468 C 448.394 456.175, 455.099 439.075, 458.652 430 C 462.205 420.925, 468.652 404.500, 472.978 393.500 C 477.304 382.500, 487.437 356.638, 495.497 336.028 C 503.556 315.418, 510.535 297.868, 511.007 297.028 C 511.766 295.678, 511.933 295.674, 512.449 297 C 512.770 297.825, 535.704 356.325, 563.414 427 L 613.795 555.500 616.767 555.804 C 619.436 556.076, 619.917 555.667, 621.468 551.804 C 622.419 549.437, 630.160 529.500, 638.671 507.500 C 647.181 485.500, 655.206 464.800, 656.503 461.500 C 657.801 458.200, 667.737 432.550, 678.584 404.500 C 689.431 376.450, 699.612 350.125, 701.208 346 C 702.804 341.875, 705.390 335.125, 706.954 331 C 708.518 326.875, 719.518 298.373, 731.399 267.662 C 743.279 236.951, 753 211.638, 753 211.412 C 753 211.185, 745.202 211, 735.672 211 L 718.344 211 715.043 219.750 C 713.227 224.563, 709.805 233.450, 707.437 239.500 C 702.634 251.773, 659.641 362.942, 651.553 384 C 629.245 442.083, 617.479 472, 616.944 472 C 616.599 472, 593.582 413.388, 565.797 341.750 L 515.278 211.500 511.807 211.200 L 508.336 210.899 501.017 229.700 C 496.992 240.040, 491.934 253, 489.778 258.500 C 487.622 264, 485.032 270.750, 484.024 273.500 C 483.015 276.250, 473.795 300.100, 463.535 326.500 C 453.274 352.900, 436.278 396.691, 425.765 423.813 C 414.591 452.639, 406.352 472.580, 405.934 471.813 C 405.540 471.091, 383.387 414.025, 356.704 345 C 330.021 275.975, 307.423 217.588, 306.486 215.250 L 304.783 211 287.308 211 C 277.697 211, 269.983 211.392, 270.167 211.871 M 816.118 225.267 C 813.157 233.095, 808.354 245.575, 805.444 253 C 802.534 260.425, 794.091 282.250, 786.682 301.500 C 779.272 320.750, 771.624 340.550, 769.685 345.500 C 767.746 350.450, 761.573 366.425, 755.966 381 C 750.360 395.575, 743.847 412.450, 741.493 418.500 C 726.193 457.822, 689.634 552.802, 689.241 554.250 C 688.796 555.892, 690.867 556, 722.665 556 L 756.563 556 766.722 529.750 C 772.309 515.313, 801.391 440.050, 831.349 362.500 C 861.306 284.950, 886.751 219.137, 887.894 216.250 L 889.971 211 855.735 211.017 L 821.500 211.034 816.118 225.267 M 1067 383.500 L 1067 556 1099.500 556 L 1132 556 1132 383.500 L 1132 211 1099.500 211 L 1067 211 1067 383.500 M 1360.500 211.659 C 1317.979 216.760, 1284.951 232.175, 1256.163 260.359 C 1230.859 285.132, 1215.775 312.478, 1209.023 345.824 C 1204.851 366.425, 1204.835 398.477, 1208.987 419.500 C 1221.310 481.896, 1265.723 531.497, 1324.467 548.470 C 1358.154 558.203, 1401.527 558.779, 1435.540 549.944 C 1461.346 543.240, 1486.156 530.144, 1506.132 512.680 C 1514.273 505.562, 1526 492.823, 1526 491.096 C 1526 490.662, 1520.411 486.053, 1513.580 480.854 L 1501.159 471.402 1489.737 482.542 C 1467.843 503.894, 1442.372 517.518, 1414.500 522.784 C 1400.318 525.463, 1365.833 525.140, 1352.312 522.201 C 1316.800 514.484, 1286.901 495.429, 1266.285 467.375 C 1242.136 434.514, 1234.081 388.753, 1245.009 346.500 C 1258.358 294.890, 1300.091 256.394, 1354.730 245.290 C 1368.320 242.528, 1401.914 242.809, 1415.688 245.800 C 1447.043 252.609, 1475.279 269.083, 1494.244 291.634 C 1497.667 295.704, 1500.974 298.840, 1501.593 298.603 C 1502.212 298.365, 1508.142 293.994, 1514.771 288.889 L 1526.823 279.606 1522.226 273.754 C 1514.485 263.902, 1496.904 247.710, 1486.232 240.605 C 1455.113 219.889, 1423.198 210.875, 1382 211.168 C 1371.825 211.240, 1362.150 211.462, 1360.500 211.659 M 1600 383.500 L 1600 556 1698 556 L 1796 556 1796 539.500 L 1796 523 1715.500 523 L 1635 523 1635 461.500 L 1635 400 1711 400 L 1787 400 1787 383.500 L 1787 367 1711 367 L 1635 367 1635 305.500 L 1635 244 1715.500 244 L 1796 244 1796 227.500 L 1796 211 1698 211 L 1600 211 1600 383.500 M 889.115 258.804 C 875.106 295.049, 872.022 303.060, 867.770 314.234 L 863.686 324.968 882.344 372.734 C 892.605 399.005, 901.001 420.848, 901.001 421.274 C 901 421.699, 884.175 421.924, 863.611 421.774 L 826.221 421.500 814.657 451.500 C 808.296 468, 802.798 482.288, 802.439 483.250 C 801.822 484.905, 805.153 485.001, 863.643 485.016 L 925.500 485.033 932.898 504.766 C 936.967 515.620, 942.985 531.587, 946.271 540.250 L 952.247 556 986.123 556 C 1004.755 556, 1020 555.680, 1020 555.289 C 1020 554.252, 898.818 238.629, 898.103 237.804 C 897.771 237.422, 893.727 246.872, 889.115 258.804" stroke="none" fill="#fbfbfc" fill-rule="evenodd"/></svg>