<svg xmlns="http://www.w3.org/2000/svg" width="800" height="600" viewBox="0 0 800 600" version="1.1"><path d="M 480.698 202.635 C 480.314 203.019, 480 219.008, 480 238.167 C 480 257.325, 479.732 273, 479.404 273 C 479.076 273, 476.302 272.271, 473.239 271.381 C 459.775 267.467, 444.410 271.676, 434.169 282.083 C 427.689 288.668, 421.095 301.732, 418.076 313.966 C 412.899 334.947, 413.100 363.768, 418.554 382.589 C 422.018 394.545, 425.260 400.272, 432.987 408.091 C 440.920 416.120, 447.487 419, 457.859 419 C 466.304 419, 472.026 417.097, 478.644 412.086 L 483.788 408.191 486.153 411.845 C 488.504 415.477, 488.561 415.500, 495.509 415.500 L 502.500 415.500 502.500 309 L 502.500 202.500 491.948 202.218 C 486.145 202.063, 481.083 202.251, 480.698 202.635 M 238.500 270.616 C 223.950 274.164, 216 277.528, 216 280.136 C 216 282.949, 223.816 298.004, 225.261 297.974 C 225.943 297.960, 228.975 296.368, 232 294.436 C 251.435 282.025, 262.388 289.413, 264.578 316.414 C 264.962 321.136, 265.101 325, 264.888 324.999 C 264.674 324.999, 262.025 324.032, 259 322.850 C 255.045 321.305, 251.218 320.687, 245.377 320.651 C 238.188 320.606, 236.501 320.971, 230.693 323.831 C 215.451 331.334, 206.696 348.281, 206.585 370.500 C 206.501 387.103, 211.193 400.345, 220.407 409.511 C 227.483 416.550, 233.132 419.002, 242.239 418.990 C 250.856 418.979, 256.984 416.506, 264.127 410.159 L 268.753 406.047 270.821 411.024 L 272.889 416 279.322 416 C 283.773 416, 286.132 415.545, 286.980 414.524 C 287.926 413.384, 288.091 401.157, 287.707 360.774 C 287.180 305.557, 286.746 299.995, 282.142 289.587 C 279.468 283.543, 272.627 276.363, 266.540 273.212 C 262.178 270.953, 260.088 270.571, 251 270.365 C 245.225 270.235, 239.600 270.348, 238.500 270.616 M 558.324 271.439 C 537.210 278.042, 523.831 307.805, 523.685 348.500 C 523.582 377.193, 529.855 395.480, 544.328 408.679 C 557.419 420.619, 576.107 422.085, 596.359 412.761 L 603.218 409.604 602.653 405.482 C 602.342 403.216, 601.611 400.106, 601.028 398.573 C 600.059 396.026, 599.645 395.838, 596.234 396.400 C 594.180 396.739, 587.775 397.281, 582 397.605 C 571.806 398.178, 571.340 398.110, 566.004 395.297 C 555.187 389.594, 549.231 377.566, 548.269 359.482 L 547.736 349.463 576.618 349.482 L 605.500 349.500 605.814 342 C 606.247 331.660, 604.411 313.947, 601.920 304.433 C 595.173 278.657, 577.650 265.397, 558.324 271.439 M 359 271.635 C 353.887 272.605, 346.373 275.298, 342.322 277.613 C 337.195 280.542, 337.004 280.547, 336.985 277.750 C 336.954 273.277, 335.975 272.909, 324.918 273.213 L 314.500 273.500 314.500 344.500 L 314.500 415.500 324.352 415.787 C 330.758 415.974, 334.694 415.669, 335.602 414.915 C 336.770 413.946, 337 404.006, 337 354.391 L 337 295.027 340.750 293.392 C 346.609 290.837, 358.872 290.371, 363.422 292.530 C 370.829 296.045, 370.442 292.734, 371 357.455 L 371.500 415.500 381.600 415.783 C 389.401 416.002, 391.970 415.741, 392.886 414.637 C 393.781 413.559, 394.003 398.082, 393.787 351.853 C 393.522 295.279, 393.360 290.188, 391.699 286.500 C 389.230 281.016, 384.635 276.520, 379.038 274.112 C 374.305 272.076, 363.632 270.756, 359 271.635 M 620.363 274.498 C 620.047 275.321, 626.139 290.454, 633.900 308.126 L 648.013 340.256 632.969 375.871 C 624.694 395.459, 618.054 412.389, 618.212 413.493 C 618.474 415.321, 619.363 415.525, 628.204 415.786 C 637.365 416.055, 637.990 415.944, 639.399 413.786 C 641.108 411.168, 652.884 378.617, 655.511 369.250 C 656.475 365.813, 657.583 363, 657.973 363 C 658.364 363, 659.250 364.913, 659.943 367.250 C 662.082 374.471, 677 413.296, 678.183 414.721 C 679.920 416.814, 699.364 416.088, 699.780 413.915 C 699.947 413.042, 693.928 397.742, 686.404 379.915 C 678.880 362.087, 672.279 346.372, 671.735 344.993 C 670.881 342.831, 672.759 338.014, 685.372 310.009 C 693.418 292.147, 700 276.513, 700 275.266 C 700 273.064, 699.720 273, 690.122 273 C 683.402 273, 679.936 273.400, 679.280 274.250 C 678.749 274.938, 675.072 284.275, 671.109 295 C 661.052 322.221, 661.258 321.728, 660.634 320 C 655.101 304.672, 643.665 275.301, 642.845 274.313 C 641.175 272.301, 621.142 272.465, 620.363 274.498 M 459.256 289.095 C 451.957 291.253, 445.935 300.438, 441.886 315.590 C 439.201 325.640, 438.131 353.633, 439.956 366.112 C 442.135 381.017, 447.721 392.811, 454.621 397.075 C 459.772 400.258, 467.363 400.625, 474.259 398.023 L 480.018 395.850 479.759 344.734 L 479.500 293.618 475 291.378 C 469.549 288.664, 463.622 287.805, 459.256 289.095 M 559.146 292.008 C 557.491 293.663, 555.205 297.508, 554.066 300.553 C 551.657 306.992, 549 321.268, 549 327.773 L 549 332.285 555.147 331.642 C 558.527 331.289, 565.952 331, 571.647 331 L 582 331 581.965 324.750 C 581.888 310.911, 577.285 294.942, 572.226 290.963 C 568.346 287.911, 562.800 288.354, 559.146 292.008 M 241 341.161 C 238.831 342.610, 236.386 345.730, 234.570 349.364 C 232.020 354.468, 231.583 356.607, 231.201 365.882 C 230.689 378.304, 232.033 386.120, 235.624 391.616 C 240.951 399.769, 247.823 401.852, 256.740 398.016 C 265.411 394.286, 265.073 395.532, 264.768 368.401 L 264.500 344.500 259.596 342.069 C 252.476 338.541, 245.434 338.197, 241 341.161" stroke="none" fill="#242323" fill-rule="evenodd"/><path d="M 201.470 183.250 C 198.059 192.364, 168.476 285.822, 166.005 295.284 C 164.170 302.315, 162.352 307.715, 161.967 307.284 C 161.581 306.853, 160.572 304.475, 159.723 302 C 147.460 266.228, 124.664 203.401, 123.726 202.792 C 123.052 202.354, 117.550 202.109, 111.500 202.248 C 100.969 202.489, 100.486 202.595, 100.183 204.732 C 99.874 206.908, 118.935 258.300, 138.671 308.500 L 148.500 333.500 149 374.500 L 149.500 415.500 160.500 415.500 L 171.500 415.500 172.015 374.500 L 172.530 333.500 194.837 273 C 226.740 186.471, 227 185.751, 227 183.785 C 227 182.167, 225.830 182, 214.469 182 C 205.360 182, 201.810 182.341, 201.470 183.250" stroke="none" fill="#fc0404" fill-rule="evenodd"/></svg>