<svg xmlns="http://www.w3.org/2000/svg" width="920" height="512" viewBox="0 0 920 512" version="1.1"><path d="M 438.329 15.019 C 380.652 20.631, 327.951 45.679, 287.766 86.576 C 268.765 105.915, 254.451 126.044, 243.023 149.500 C 201.772 234.163, 212.775 334.089, 271.430 407.500 C 279.126 417.133, 297.823 435.906, 307.487 443.705 C 341.446 471.112, 382.293 488.867, 427 495.658 C 442.907 498.074, 477.093 498.074, 493 495.658 C 542.871 488.083, 586.815 467.462, 622.643 434.820 C 664.667 396.534, 691.277 345.983, 699.664 288.500 C 702.249 270.781, 702.018 237.914, 699.184 220.299 C 690.049 163.523, 664.544 115.859, 622.543 77.074 C 588.626 45.754, 543.776 24.377, 496.500 16.999 C 481.496 14.658, 452.264 13.663, 438.329 15.019 M 492.056 180.991 C 475.312 230.466, 461.515 270.845, 461.396 270.723 C 461.232 270.554, 429.202 177.664, 412.786 129.750 L 410.816 124 392.908 124 C 383.059 124, 375 124.154, 375 124.341 C 375 124.529, 390.300 167.245, 409 219.265 L 443 313.848 443 372.924 L 443 432 460 432 L 477 432 477 373.554 L 477 315.108 515.502 203.955 C 536.678 142.821, 554.255 92.397, 554.561 91.901 C 554.883 91.380, 548.238 91.007, 538.809 91.018 L 522.500 91.035 492.056 180.991" stroke="none" fill="#fc0404" fill-rule="evenodd"/><path d="M -0 256.001 L -0 512.002 460.250 511.751 L 920.500 511.500 920.752 255.750 L 921.004 -0 460.502 -0 L 0 0 -0 256.001 M 0.492 256.500 C 0.492 397.300, 0.608 454.751, 0.750 384.170 C 0.892 313.588, 0.892 198.388, 0.750 128.170 C 0.608 57.951, 0.492 115.700, 0.492 256.500 M 438.329 15.019 C 380.652 20.631, 327.951 45.679, 287.766 86.576 C 268.765 105.915, 254.451 126.044, 243.023 149.500 C 201.772 234.163, 212.775 334.089, 271.430 407.500 C 279.126 417.133, 297.823 435.906, 307.487 443.705 C 341.446 471.112, 382.293 488.867, 427 495.658 C 442.907 498.074, 477.093 498.074, 493 495.658 C 542.871 488.083, 586.815 467.462, 622.643 434.820 C 664.667 396.534, 691.277 345.983, 699.664 288.500 C 702.249 270.781, 702.018 237.914, 699.184 220.299 C 690.049 163.523, 664.544 115.859, 622.543 77.074 C 588.626 45.754, 543.776 24.377, 496.500 16.999 C 481.496 14.658, 452.264 13.663, 438.329 15.019 M 492.056 180.991 C 475.312 230.466, 461.515 270.845, 461.396 270.723 C 461.232 270.554, 429.202 177.664, 412.786 129.750 L 410.816 124 392.908 124 C 383.059 124, 375 124.154, 375 124.341 C 375 124.529, 390.300 167.245, 409 219.265 L 443 313.848 443 372.924 L 443 432 460 432 L 477 432 477 373.554 L 477 315.108 515.502 203.955 C 536.678 142.821, 554.255 92.397, 554.561 91.901 C 554.883 91.380, 548.238 91.007, 538.809 91.018 L 522.500 91.035 492.056 180.991" stroke="none" fill="#f0f0f0" fill-rule="evenodd"/></svg>