<svg xmlns="http://www.w3.org/2000/svg" width="225" height="225" viewBox="0 0 225 225" version="1.1"><path d="M 125.522 75.450 C 117.834 98.235, 111.309 116.642, 111.022 116.356 C 110.735 116.069, 105.289 100.685, 98.919 82.167 L 87.338 48.500 79.046 48.208 C 71.415 47.938, 70.810 48.058, 71.464 49.708 C 71.854 50.693, 79.110 70.689, 87.587 94.142 L 103 136.785 103 163.892 L 103 191 110.500 191 L 118 191 118 164.331 L 118 137.661 128.100 108.581 C 133.655 92.586, 141.738 69.263, 146.064 56.750 L 153.928 34 146.714 34.011 L 139.500 34.023 125.522 75.450" stroke="none" fill="#fc0505" fill-rule="evenodd"/><path d="M -0 112.504 L -0 225.009 112.750 224.754 L 225.500 224.500 225.754 112.250 L 226.009 0 113.004 0 L 0 0 -0 112.504 M 0.483 113 C 0.483 174.875, 0.603 200.188, 0.750 169.250 C 0.897 138.313, 0.897 87.688, 0.750 56.750 C 0.603 25.813, 0.483 51.125, 0.483 113 M 125.522 75.450 C 117.834 98.235, 111.309 116.642, 111.022 116.356 C 110.735 116.069, 105.289 100.685, 98.919 82.167 L 87.338 48.500 79.046 48.208 C 71.415 47.938, 70.810 48.058, 71.464 49.708 C 71.854 50.693, 79.110 70.689, 87.587 94.142 L 103 136.785 103 163.892 L 103 191 110.500 191 L 118 191 118 164.331 L 118 137.661 128.100 108.581 C 133.655 92.586, 141.738 69.263, 146.064 56.750 L 153.928 34 146.714 34.011 L 139.500 34.023 125.522 75.450" stroke="none" fill="#fcfbfb" fill-rule="evenodd"/></svg>